<svg width="48" height="40" viewBox="0 0 48 40" fill="none" xmlns="http://www.w3.org/2000/svg">
<path d="M47.2366 4.65324C46.1701 5.12702 45.063 5.50079 43.927 5.77138C45.1788 4.57973 46.1199 3.08922 46.6509 1.42555C46.8024 0.950603 46.2875 0.539902 45.8594 0.794201C44.279 1.73331 42.5767 2.43782 40.7996 2.88839C40.6965 2.91453 40.5902 2.92778 40.4834 2.92778C40.1597 2.92778 39.845 2.80737 39.5975 2.58883C37.7068 0.919416 35.2751 0 32.7504 0C31.6579 0 30.5549 0.170588 29.4719 0.507074C26.1165 1.54971 23.5275 4.32262 22.7152 7.74375C22.4104 9.02697 22.3279 10.3114 22.4698 11.5612C22.486 11.7048 22.4183 11.805 22.3765 11.8521C22.3031 11.9345 22.1991 11.9817 22.091 11.9817C22.079 11.9817 22.0666 11.9811 22.0543 11.98C14.7093 11.2963 8.08596 7.75126 3.40421 1.99793C3.16548 1.70447 2.70766 1.74047 2.51737 2.06746C1.60056 3.6432 1.11606 5.44545 1.11606 7.27936C1.11606 10.0899 2.24317 12.7385 4.20095 14.6694C3.37765 14.4738 2.5808 14.1658 1.84059 13.754C1.48248 13.5546 1.04187 13.8108 1.03684 14.2212C0.985577 18.3964 3.42563 22.1116 7.08091 23.7845C7.0073 23.7863 6.93369 23.7871 6.85996 23.7871C6.28055 23.7871 5.69389 23.7311 5.11646 23.6205C4.71318 23.5434 4.37438 23.9266 4.49961 24.3183C5.68604 28.0292 8.87532 30.7644 12.6919 31.3855C9.52436 33.5157 5.83572 34.6393 1.99659 34.6393L0.799735 34.6386C0.430977 34.6386 0.119095 34.8794 0.0251203 35.2373C-0.0674496 35.5897 0.103062 35.9615 0.417518 36.1447C4.74361 38.667 9.67814 40 14.6898 40C19.0766 40 23.1801 39.1278 26.8864 37.4079C30.2841 35.8311 33.2866 33.5771 35.8105 30.7085C38.1616 28.0363 40.0001 24.9516 41.2748 21.54C42.4899 18.2881 43.1322 14.8182 43.1322 11.5054V11.3476C43.132 10.8156 43.3722 10.3151 43.7911 9.97441C45.381 8.68123 46.7654 7.15895 47.9059 5.4499C48.207 4.99864 47.7321 4.43306 47.2366 4.65324Z" fill="white"/>
</svg>
